<mxfile host="app.diagrams.net" modified="2021-10-12T07:52:56.259Z" agent="5.0 (Windows NT 10.0; Win64; x64) AppleWebKit/537.36 (KHTML, like Gecko) Chrome/94.0.4606.61 Safari/537.36" etag="pkKn6z4Mqo6HRlEEc-od" version="15.2.7" type="github">
  <diagram id="C5RBs43oDa-KdzZeNtuy" name="Page-1">
    <mxGraphModel dx="1422" dy="762" grid="1" gridSize="10" guides="1" tooltips="1" connect="1" arrows="1" fold="1" page="1" pageScale="1" pageWidth="827" pageHeight="1169" math="0" shadow="0">
      <root>
        <mxCell id="WIyWlLk6GJQsqaUBKTNV-0" />
        <mxCell id="WIyWlLk6GJQsqaUBKTNV-1" parent="WIyWlLk6GJQsqaUBKTNV-0" />
        <mxCell id="oXt7-eK3U-jaSbHWYgQf-13" value="" style="edgeStyle=orthogonalEdgeStyle;rounded=0;orthogonalLoop=1;jettySize=auto;html=1;entryX=0.5;entryY=0;entryDx=0;entryDy=0;" edge="1" parent="WIyWlLk6GJQsqaUBKTNV-1" source="WIyWlLk6GJQsqaUBKTNV-3" target="oXt7-eK3U-jaSbHWYgQf-14">
          <mxGeometry relative="1" as="geometry">
            <mxPoint x="220" y="140" as="targetPoint" />
          </mxGeometry>
        </mxCell>
        <mxCell id="WIyWlLk6GJQsqaUBKTNV-3" value="start" style="rounded=1;whiteSpace=wrap;html=1;fontSize=12;glass=0;strokeWidth=1;shadow=0;" parent="WIyWlLk6GJQsqaUBKTNV-1" vertex="1">
          <mxGeometry x="160" y="80" width="120" height="40" as="geometry" />
        </mxCell>
        <mxCell id="oXt7-eK3U-jaSbHWYgQf-4" value="" style="edgeStyle=orthogonalEdgeStyle;rounded=0;orthogonalLoop=1;jettySize=auto;html=1;" edge="1" parent="WIyWlLk6GJQsqaUBKTNV-1" source="oXt7-eK3U-jaSbHWYgQf-2">
          <mxGeometry relative="1" as="geometry">
            <mxPoint x="354" y="300" as="targetPoint" />
          </mxGeometry>
        </mxCell>
        <mxCell id="oXt7-eK3U-jaSbHWYgQf-10" value="" style="edgeStyle=orthogonalEdgeStyle;rounded=0;orthogonalLoop=1;jettySize=auto;html=1;" edge="1" parent="WIyWlLk6GJQsqaUBKTNV-1" source="oXt7-eK3U-jaSbHWYgQf-2" target="oXt7-eK3U-jaSbHWYgQf-8">
          <mxGeometry relative="1" as="geometry" />
        </mxCell>
        <mxCell id="oXt7-eK3U-jaSbHWYgQf-2" value="启动次数大于5" style="rhombus;whiteSpace=wrap;html=1;rounded=1;shadow=0;strokeWidth=1;glass=0;" vertex="1" parent="WIyWlLk6GJQsqaUBKTNV-1">
          <mxGeometry x="140" y="260" width="160" height="80" as="geometry" />
        </mxCell>
        <mxCell id="oXt7-eK3U-jaSbHWYgQf-5" value="Yes" style="text;html=1;align=center;verticalAlign=middle;resizable=0;points=[];autosize=1;strokeColor=none;fillColor=none;" vertex="1" parent="WIyWlLk6GJQsqaUBKTNV-1">
          <mxGeometry x="300" y="280" width="40" height="20" as="geometry" />
        </mxCell>
        <mxCell id="oXt7-eK3U-jaSbHWYgQf-28" value="" style="edgeStyle=orthogonalEdgeStyle;rounded=0;orthogonalLoop=1;jettySize=auto;html=1;" edge="1" parent="WIyWlLk6GJQsqaUBKTNV-1" source="oXt7-eK3U-jaSbHWYgQf-8" target="oXt7-eK3U-jaSbHWYgQf-26">
          <mxGeometry relative="1" as="geometry" />
        </mxCell>
        <mxCell id="oXt7-eK3U-jaSbHWYgQf-8" value="启动robot" style="rounded=0;whiteSpace=wrap;html=1;" vertex="1" parent="WIyWlLk6GJQsqaUBKTNV-1">
          <mxGeometry x="160" y="370" width="120" height="40" as="geometry" />
        </mxCell>
        <mxCell id="oXt7-eK3U-jaSbHWYgQf-11" value="No" style="text;html=1;align=center;verticalAlign=middle;resizable=0;points=[];autosize=1;strokeColor=none;fillColor=none;" vertex="1" parent="WIyWlLk6GJQsqaUBKTNV-1">
          <mxGeometry x="225" y="340" width="30" height="20" as="geometry" />
        </mxCell>
        <mxCell id="oXt7-eK3U-jaSbHWYgQf-15" value="" style="edgeStyle=orthogonalEdgeStyle;rounded=0;orthogonalLoop=1;jettySize=auto;html=1;" edge="1" parent="WIyWlLk6GJQsqaUBKTNV-1" source="oXt7-eK3U-jaSbHWYgQf-14" target="oXt7-eK3U-jaSbHWYgQf-2">
          <mxGeometry relative="1" as="geometry" />
        </mxCell>
        <mxCell id="oXt7-eK3U-jaSbHWYgQf-39" value="" style="edgeStyle=orthogonalEdgeStyle;rounded=0;orthogonalLoop=1;jettySize=auto;html=1;" edge="1" parent="WIyWlLk6GJQsqaUBKTNV-1" source="oXt7-eK3U-jaSbHWYgQf-14" target="oXt7-eK3U-jaSbHWYgQf-20">
          <mxGeometry relative="1" as="geometry" />
        </mxCell>
        <mxCell id="oXt7-eK3U-jaSbHWYgQf-14" value="robot是否启动" style="rhombus;whiteSpace=wrap;html=1;rounded=1;shadow=0;strokeWidth=1;glass=0;" vertex="1" parent="WIyWlLk6GJQsqaUBKTNV-1">
          <mxGeometry x="140" y="150" width="160" height="80" as="geometry" />
        </mxCell>
        <mxCell id="oXt7-eK3U-jaSbHWYgQf-16" value="No" style="text;html=1;align=center;verticalAlign=middle;resizable=0;points=[];autosize=1;strokeColor=none;fillColor=none;" vertex="1" parent="WIyWlLk6GJQsqaUBKTNV-1">
          <mxGeometry x="235" y="240" width="30" height="20" as="geometry" />
        </mxCell>
        <mxCell id="oXt7-eK3U-jaSbHWYgQf-20" value="end" style="rounded=1;whiteSpace=wrap;html=1;fontSize=12;glass=0;strokeWidth=1;shadow=0;" vertex="1" parent="WIyWlLk6GJQsqaUBKTNV-1">
          <mxGeometry x="354" y="170" width="120" height="40" as="geometry" />
        </mxCell>
        <mxCell id="oXt7-eK3U-jaSbHWYgQf-22" style="edgeStyle=orthogonalEdgeStyle;rounded=0;orthogonalLoop=1;jettySize=auto;html=1;exitX=1;exitY=0.5;exitDx=0;exitDy=0;" edge="1" parent="WIyWlLk6GJQsqaUBKTNV-1" source="oXt7-eK3U-jaSbHWYgQf-21">
          <mxGeometry relative="1" as="geometry">
            <mxPoint x="220" y="130" as="targetPoint" />
            <Array as="points">
              <mxPoint x="530" y="300" />
              <mxPoint x="530" y="130" />
            </Array>
          </mxGeometry>
        </mxCell>
        <mxCell id="oXt7-eK3U-jaSbHWYgQf-21" value="回滚" style="rounded=0;whiteSpace=wrap;html=1;" vertex="1" parent="WIyWlLk6GJQsqaUBKTNV-1">
          <mxGeometry x="354" y="280" width="116" height="40" as="geometry" />
        </mxCell>
        <mxCell id="oXt7-eK3U-jaSbHWYgQf-36" value="" style="edgeStyle=orthogonalEdgeStyle;rounded=0;orthogonalLoop=1;jettySize=auto;html=1;" edge="1" parent="WIyWlLk6GJQsqaUBKTNV-1" source="oXt7-eK3U-jaSbHWYgQf-26" target="oXt7-eK3U-jaSbHWYgQf-35">
          <mxGeometry relative="1" as="geometry" />
        </mxCell>
        <mxCell id="oXt7-eK3U-jaSbHWYgQf-26" value="启动次数加一" style="rounded=0;whiteSpace=wrap;html=1;" vertex="1" parent="WIyWlLk6GJQsqaUBKTNV-1">
          <mxGeometry x="160" y="440" width="120" height="40" as="geometry" />
        </mxCell>
        <mxCell id="oXt7-eK3U-jaSbHWYgQf-37" style="edgeStyle=orthogonalEdgeStyle;rounded=0;orthogonalLoop=1;jettySize=auto;html=1;exitX=0.5;exitY=0;exitDx=0;exitDy=0;" edge="1" parent="WIyWlLk6GJQsqaUBKTNV-1" source="oXt7-eK3U-jaSbHWYgQf-32">
          <mxGeometry relative="1" as="geometry">
            <mxPoint x="530" y="300" as="targetPoint" />
          </mxGeometry>
        </mxCell>
        <mxCell id="oXt7-eK3U-jaSbHWYgQf-32" value="计时，时间超过10min重启次数清零" style="rounded=0;whiteSpace=wrap;html=1;" vertex="1" parent="WIyWlLk6GJQsqaUBKTNV-1">
          <mxGeometry x="470" y="370" width="120" height="40" as="geometry" />
        </mxCell>
        <mxCell id="oXt7-eK3U-jaSbHWYgQf-38" style="edgeStyle=orthogonalEdgeStyle;rounded=0;orthogonalLoop=1;jettySize=auto;html=1;exitX=1;exitY=0.5;exitDx=0;exitDy=0;entryX=0.5;entryY=1;entryDx=0;entryDy=0;" edge="1" parent="WIyWlLk6GJQsqaUBKTNV-1" source="oXt7-eK3U-jaSbHWYgQf-35" target="oXt7-eK3U-jaSbHWYgQf-32">
          <mxGeometry relative="1" as="geometry" />
        </mxCell>
        <mxCell id="oXt7-eK3U-jaSbHWYgQf-35" value="sleep 10s" style="rounded=0;whiteSpace=wrap;html=1;" vertex="1" parent="WIyWlLk6GJQsqaUBKTNV-1">
          <mxGeometry x="352" y="440" width="120" height="40" as="geometry" />
        </mxCell>
        <mxCell id="oXt7-eK3U-jaSbHWYgQf-40" value="Yes" style="text;html=1;align=center;verticalAlign=middle;resizable=0;points=[];autosize=1;strokeColor=none;fillColor=none;" vertex="1" parent="WIyWlLk6GJQsqaUBKTNV-1">
          <mxGeometry x="300" y="170" width="40" height="20" as="geometry" />
        </mxCell>
      </root>
    </mxGraphModel>
  </diagram>
</mxfile>
